<svg width="45" height="40" viewBox="0 0 45 40" fill="none" xmlns="http://www.w3.org/2000/svg">
<path d="M11.25 20C11.2591 20.8768 11.6566 21.7151 12.3562 22.3333L20.4 29.5C20.7513 29.8104 21.2265 29.9846 21.7219 29.9846C22.2172 29.9846 22.6924 29.8104 23.0437 29.5C23.2195 29.345 23.359 29.1607 23.4542 28.9576C23.5494 28.7545 23.5984 28.5367 23.5984 28.3166C23.5984 28.0966 23.5494 27.8788 23.4542 27.6757C23.359 27.4726 23.2195 27.2882 23.0437 27.1333L16.875 21.6666H35.625C36.1223 21.6666 36.5992 21.491 36.9508 21.1785C37.3025 20.8659 37.5 20.442 37.5 20C37.5 19.5579 37.3025 19.134 36.9508 18.8215C36.5992 18.5089 36.1223 18.3333 35.625 18.3333H16.875L23.0437 12.85C23.3968 12.5383 23.5962 12.1148 23.5979 11.6725C23.5997 11.2302 23.4037 10.8055 23.0531 10.4916C22.7025 10.1778 22.2261 10.0006 21.7285 9.99903C21.2309 9.99747 20.7531 10.1717 20.4 10.4833L12.3562 17.65C11.652 18.2722 11.2542 19.1173 11.25 20Z" fill="white"/>
</svg>
