<svg width="47" height="47" viewBox="0 0 47 47" fill="none" xmlns="http://www.w3.org/2000/svg">
<g clip-path="url(#clip0_12_437)">
<path d="M43.0833 11.2095V3.91669C43.0833 2.83569 42.208 1.95836 41.125 1.95836C40.042 1.95836 39.1667 2.83569 39.1667 3.91669V8.55011L28.9775 1.6744C25.6502 -0.569852 21.3498 -0.569852 18.0225 1.6744L4.31421 10.9256C1.61367 12.7488 0 15.7822 0 19.0429V37.2084C0 42.6075 4.39254 47 9.79167 47H15.6667C16.7496 47 17.625 46.1227 17.625 45.0417V29.375C17.625 28.296 18.5023 27.4167 19.5833 27.4167H27.4167C28.4977 27.4167 29.375 28.296 29.375 29.375V45.0417C29.375 46.1227 30.2504 47 31.3333 47H37.2083C42.6075 47 47 42.6075 47 37.2084V19.0429C47 15.9467 45.543 13.0543 43.0833 11.2095ZM43.0833 37.2084C43.0833 40.4474 40.4474 43.0834 37.2083 43.0834H33.2917V29.375C33.2917 26.1359 30.6558 23.5 27.4167 23.5H19.5833C16.3442 23.5 13.7083 26.1359 13.7083 29.375V43.0834H9.79167C6.55258 43.0834 3.91667 40.4474 3.91667 37.2084V19.0429C3.91667 17.0865 4.88408 15.2652 6.50558 14.1725L20.2139 4.92132C22.2114 3.57398 24.7886 3.57398 26.7841 4.92132L40.4925 14.1725C42.114 15.2652 43.0814 17.0865 43.0814 19.0429L43.0833 37.2084Z" fill="white"/>
</g>
<defs>
<clipPath id="clip0_12_437">
<rect width="47" height="47" fill="white"/>
</clipPath>
</defs>
</svg>
