<svg width="45" height="45" viewBox="0 0 45 45" fill="none" xmlns="http://www.w3.org/2000/svg">
<g clip-path="url(#clip0_15_39)">
<path d="M35.625 11.2501H18.8381L40.0087 3.63949C40.9837 3.28886 41.49 2.21636 41.1394 1.24136C40.7887 0.266361 39.7144 -0.245514 38.7413 0.110736L6.4725 11.7114C2.72062 12.9357 0 16.4701 0 20.6251V35.6251C0 40.7945 4.20563 45.0001 9.375 45.0001H35.625C40.7944 45.0001 45 40.7945 45 35.6251V20.6251C45 15.4557 40.7944 11.2501 35.625 11.2501ZM41.25 35.6251C41.25 38.732 38.7319 41.2501 35.625 41.2501H9.375C6.26813 41.2501 3.75 38.732 3.75 35.6251V20.6251C3.75 17.5182 6.26813 15.0001 9.375 15.0001H35.625C38.7319 15.0001 41.25 17.5182 41.25 20.6251V35.6251ZM16.875 28.1251C16.875 29.1601 16.035 30.0001 15 30.0001H9.375C8.34 30.0001 7.5 29.1601 7.5 28.1251C7.5 27.0901 8.34 26.2501 9.375 26.2501H15C16.035 26.2501 16.875 27.0901 16.875 28.1251ZM16.875 35.6251C16.875 36.6601 16.035 37.5001 15 37.5001H9.375C8.34 37.5001 7.5 36.6601 7.5 35.6251C7.5 34.5901 8.34 33.7501 9.375 33.7501H15C16.035 33.7501 16.875 34.5901 16.875 35.6251ZM16.875 20.6251C16.875 21.6601 16.035 22.5001 15 22.5001H9.375C8.34 22.5001 7.5 21.6601 7.5 20.6251C7.5 19.5901 8.34 18.7501 9.375 18.7501H15C16.035 18.7501 16.875 19.5901 16.875 20.6251ZM29.0625 19.6876C24.4106 19.6876 20.625 23.4732 20.625 28.1251C20.625 32.777 24.4106 36.5626 29.0625 36.5626C33.7144 36.5626 37.5 32.777 37.5 28.1251C37.5 23.4732 33.7144 19.6876 29.0625 19.6876ZM29.0625 32.8126C26.4788 32.8126 24.375 30.7089 24.375 28.1251C24.375 25.5414 26.4788 23.4376 29.0625 23.4376C31.6462 23.4376 33.75 25.5414 33.75 28.1251C33.75 30.7089 31.6462 32.8126 29.0625 32.8126Z" fill="white"/>
</g>
<defs>
<clipPath id="clip0_15_39">
<rect width="45" height="45" fill="white"/>
</clipPath>
</defs>
</svg>
