<svg width="40" height="43" viewBox="0 0 40 43" fill="none" xmlns="http://www.w3.org/2000/svg">
<g clip-path="url(#clip0_12_439)">
<path d="M39.5117 39.9416L29.5633 29.2471C32.2744 25.6828 33.6073 21.1346 33.2864 16.5434C32.9655 11.9522 31.0154 7.66926 27.8393 4.58041C24.6633 1.49156 20.5043 -0.166842 16.2227 -0.0517605C11.9412 0.0633215 7.86451 1.94308 4.83602 5.1987C1.80754 8.45432 0.0589293 12.8367 -0.0481237 17.4394C-0.155177 22.0421 1.38752 26.513 4.26087 29.9272C7.13422 33.3415 11.1184 35.4379 15.3893 35.7829C19.6602 36.1278 23.891 34.6949 27.2067 31.7806L37.155 42.475C37.4693 42.8014 37.8903 42.982 38.3273 42.9779C38.7643 42.9738 39.1824 42.7854 39.4914 42.4532C39.8004 42.121 39.9757 41.6716 39.9795 41.2019C39.9833 40.7321 39.8153 40.2795 39.5117 39.9416ZM16.6667 32.25C14.0296 32.25 11.4517 31.4093 9.25907 29.8344C7.06641 28.2594 5.35744 26.0208 4.34828 23.4018C3.33911 20.7827 3.07506 17.9007 3.58953 15.1203C4.104 12.34 5.37388 9.786 7.23858 7.78144C9.10328 5.77689 11.4791 4.41177 14.0655 3.85872C16.6519 3.30566 19.3328 3.58951 21.7691 4.67437C24.2055 5.75922 26.2878 7.59636 27.7529 9.95347C29.218 12.3106 30 15.0818 30 17.9166C29.996 21.7168 28.59 25.36 26.0904 28.0471C23.5908 30.7342 20.2017 32.2457 16.6667 32.25Z" fill="white"/>
</g>
<defs>
<clipPath id="clip0_12_439">
<rect width="40" height="43" fill="white"/>
</clipPath>
</defs>
</svg>
