<svg width="43" height="45" viewBox="0 0 43 45" fill="none" xmlns="http://www.w3.org/2000/svg">
<g clip-path="url(#clip0_12_441)">
<path d="M31.3539 3.59448C29.3364 3.62732 27.3629 4.21671 25.6327 5.30312C23.9025 6.38952 22.4769 7.93449 21.4998 9.78198C20.5227 7.93449 19.097 6.38952 17.3668 5.30312C15.6366 4.21671 13.6631 3.62732 11.6456 3.59448C8.42945 3.74071 5.39932 5.21308 3.21721 7.68992C1.03509 10.1668 -0.121624 13.4467 -0.00023749 16.8132C-0.00023749 25.3389 8.57468 34.6501 15.7664 40.9632C17.3722 42.3753 19.4024 43.1495 21.4998 43.1495C23.5972 43.1495 25.6274 42.3753 27.2331 40.9632C34.4248 34.6501 42.9998 25.3389 42.9998 16.8132C43.1211 13.4467 41.9644 10.1668 39.7823 7.68992C37.6002 5.21308 34.5701 3.74071 31.3539 3.59448ZM24.9308 38.0945C23.9704 38.9408 22.7553 39.4049 21.4998 39.4049C20.2442 39.4049 19.0291 38.9408 18.0687 38.0945C8.86314 30.0114 3.5831 22.2564 3.5831 16.8132C3.46062 14.4408 4.2395 12.114 5.74987 10.3402C7.26024 8.56636 9.37956 7.48951 11.6456 7.34448C13.9116 7.48951 16.031 8.56636 17.5413 10.3402C19.0517 12.114 19.8306 14.4408 19.7081 16.8132C19.7081 17.3105 19.8969 17.7874 20.2329 18.1391C20.5689 18.4907 21.0246 18.6882 21.4998 18.6882C21.9749 18.6882 22.4307 18.4907 22.7667 18.1391C23.1027 17.7874 23.2914 17.3105 23.2914 16.8132C23.169 14.4408 23.9478 12.114 25.4582 10.3402C26.9686 8.56636 29.0879 7.48951 31.3539 7.34448C33.62 7.48951 35.7393 8.56636 37.2496 10.3402C38.76 12.114 39.5389 14.4408 39.4164 16.8132C39.4164 22.2564 34.1364 30.0114 24.9308 38.087V38.0945Z" fill="white"/>
</g>
<defs>
<clipPath id="clip0_12_441">
<rect width="43" height="45" fill="white"/>
</clipPath>
</defs>
</svg>
